<?xml version="1.0" encoding="UTF-8" standalone="no"?>
<svg
   xmlns:dc="http://purl.org/dc/elements/1.1/"
   xmlns:cc="http://creativecommons.org/ns#"
   xmlns:rdf="http://www.w3.org/1999/02/22-rdf-syntax-ns#"
   xmlns:svg="http://www.w3.org/2000/svg"
   xmlns="http://www.w3.org/2000/svg"
   xmlns:sodipodi="http://sodipodi.sourceforge.net/DTD/sodipodi-0.dtd"
   xmlns:inkscape="http://www.inkscape.org/namespaces/inkscape"
   width="256"
   height="256"
   viewBox="0 0 67.733335 67.733331"
   version="1.1"
   id="svg117"
   sodipodi:docname="d1g-icon.svg"
   inkscape:export-filename="C:\Users\Christophe\Desktop\bitmap.png"
   inkscape:export-xdpi="6.0000005"
   inkscape:export-ydpi="6.0000005"
   inkscape:version="1.0.1 (3bc2e813f5, 2020-09-07)">
  <defs
     id="defs111" />
  <sodipodi:namedview
     id="base"
     pagecolor="#ffffff"
     bordercolor="#666666"
     borderopacity="1.0"
     inkscape:pageopacity="0.0"
     inkscape:pageshadow="2"
     inkscape:zoom="3.959798"
     inkscape:cx="101.0916"
     inkscape:cy="129.25508"
     inkscape:document-units="mm"
     inkscape:current-layer="layer1"
     inkscape:document-rotation="0"
     showgrid="false"
     units="px"
     inkscape:window-width="3840"
     inkscape:window-height="2066"
     inkscape:window-x="2869"
     inkscape:window-y="-11"
     inkscape:window-maximized="1" />
  <metadata
     id="metadata114">
    <rdf:RDF>
      <cc:Work
         rdf:about="">
        <dc:format>image/svg+xml</dc:format>
        <dc:type
           rdf:resource="http://purl.org/dc/dcmitype/StillImage" />
        <dc:title></dc:title>
      </cc:Work>
    </rdf:RDF>
  </metadata>
  <g
     inkscape:label="Layer 1"
     inkscape:groupmode="layer"
     id="layer1">
    <g
       id="g12146"
       inkscape:export-xdpi="738.46155"
       inkscape:export-ydpi="738.46155"
       transform="matrix(1.0044367,0,0,1.0044367,1.0263275,1.3217344)">
      <path
         style="fill:#b2b2b2"
         d="M 0,26 C 0,0 0,0 26,0 52,0 52,0 52,26 52,52 52,52 26,52 0,52 0,52 0,26 Z"
         id="path12154" />
      <path
         style="fill:#737373"
         d="M 0,26 C 0,0 0,0 26,0 52,0 52,0 52,26 52,52 52,52 26,52 0,52 0,52 0,26 Z M 30,44.5 C 30,43.125 29.55,42 29,42 c -0.55,0 -1.052201,-0.7875 -1.116001,-1.75 -0.110478,-1.666667 -0.137779,-1.666667 -0.573325,0 -0.54758,2.095381 -1.908921,2.267638 -3.010984,0.380994 C 23.076973,38.537799 19,37.532505 19,39.324204 c 0,0.802439 1.232992,1.768441 2.739983,2.146672 1.506991,0.378231 3.081991,1.214514 3.5,1.858408 0.555035,0.854966 1.025594,0.766156 1.744704,-0.329284 0.77205,-1.176083 0.987994,-0.906153 1,1.25 C 27.993109,45.7625 28.45,47 29,47 c 0.55,0 1,-1.125 1,-2.5 z M 27,33.309678 c 0,-1.968387 -2.412132,-1.097005 -2.822649,1.019681 -0.224998,1.160126 0.153318,1.480982 1.25,1.060145 C 26.292308,35.057589 27,34.121667 27,33.309678 Z M 13.5,32.263407 C 11.85,32.023097 10.140139,31.190521 9.7003099,30.41324 9.2604803,29.635958 8.4773847,29 7.9600974,29 7.44281,29 7.790179,29.9 8.7320283,31 9.8233326,32.274551 11.542725,32.945652 13.472241,32.850168 16.5,32.700336 16.5,32.700336 13.5,32.263407 Z m 4.47104,-9.959321 c 0.259071,-0.227058 -0.01095,-0.725864 -0.600056,-1.108459 -0.589103,-0.382595 -1.251071,-1.203554 -1.47104,-1.824355 -0.228391,-0.644567 -1.579993,0.07919 -3.151004,1.687302 -2.470865,2.529216 2.425041,3.696928 5.2221,1.245512 z M 27.369714,18.75 C 29.208291,11.889373 26.917449,7.6810282 21.624568,8.1959966 18.793371,8.4714566 18.470615,8.8561902 18.187034,12.293631 17.64799,18.827668 25.810824,24.56698 27.369714,18.75 Z M 7.9533765,5 C 8.4113317,5 9.0450442,4.325 9.3616264,3.5 10.099653,1.5767348 9.5439499,1.5989072 7.5714286,3.5714286 6.6292774,4.5135797 6.0673168,6.6159384 6.1681031,8.8214286 6.3362062,12.5 6.3362062,12.5 6.7284684,8.75 6.9442126,6.6875 7.4954212,5 7.9533765,5 Z M 42.610466,3.427274 C 42.309233,2.6422733 41.486146,2.0355263 40.781385,2.0789474 39.777743,2.1407827 39.770941,2.2672216 40.75,2.6622807 c 0.6875,0.2774123 1.311282,1.929386 1.386182,3.6710526 0.106412,2.4744278 0.233001,2.6589147 0.579081,0.8439407 0.243595,-1.2774993 0.196436,-2.9649993 -0.104797,-3.75 z"
         id="path12152" />
      <path
         style="fill:#333333"
         d="M 0,26 C 0,0 0,0 26,0 52,0 52,0 52,26 52,52 52,52 26,52 0,52 0,52 0,26 Z m 27.116001,20.25 c 0.110478,-1.666667 0.137779,-1.666667 0.573325,0 0.594018,2.273083 1.473155,2.209034 3.588433,-0.261431 C 33.569353,43.312182 33.449202,42.27496 30.75,41.432606 29.5125,41.046414 28.169391,40.228589 27.765313,39.615219 27.248999,38.831479 27.026074,38.871541 27.015313,39.75 27.006891,40.4375 26.55,41 26,41 c -1.51332,0 -1.197058,-4.945799 0.419643,-6.5625 1.084848,-1.084848 1.524222,-1.12696 1.863095,-0.178571 0.243899,0.682589 0.829527,0.879103 1.301397,0.436698 C 30.61539,33.728765 28.194934,32.036706 25.75,32.015313 24.7875,32.006891 24,32.675 24,33.5 c 0,1.418128 -1.089757,1.902686 -3.612399,1.606245 -1.261356,-0.148225 -2.650513,8.045042 -1.758257,10.370225 0.870441,2.268331 2.07286,1.846181 2.7813,-0.97647 C 22.014369,42.094569 24,40.944303 24,43 c 0,0.55 -0.45,1 -1,1 -1.43935,0 -1.234207,2.738829 0.25,3.337719 2.465924,0.995022 3.751928,0.633198 3.866001,-1.087719 z M 18,33.5 C 18,32.566667 17.055556,32 15.5,32 14.125,32 13,31.55 13,31 13,30.45 12.310877,30 11.468615,30 10.626354,30 9.6782086,29.325 9.3616264,28.5 8.3863909,25.958577 7,26.839151 7,30 c 0,2.666667 0.3333333,3 3,3 1.65,0 3,0.45 3,1 0,0.55 1.125,1 2.5,1 1.555556,0 2.5,-0.566667 2.5,-1.5 z M 33.29969,24.369006 C 33.73952,23.616053 35.20202,23 36.54969,23 37.897361,23 39,22.598145 39,22.106989 39,21.138078 36.604046,20 34.564235,20 32.949845,20 28,24.539185 28,26.019639 c 0,1.480412 4.242602,0.159018 5.29969,-1.650633 z m -20.897361,0.02492 c 0.691189,-1.80121 5.415797,-1.162026 6.913785,0.935353 0.631012,0.883498 0.960582,0.864047 1.34335,-0.07928 C 21.261723,23.765733 24,23.560805 24,25 c 0,1.918184 2.870552,0.983216 3.549552,-1.156125 0.37638,-1.185869 1.756705,-3.149971 3.067388,-4.364671 C 32.979931,17.289258 33.958024,12 32,12 31.45,12 31,11.425008 31,10.722241 31,2.7570815 16.357463,4.9160271 15.267556,13.041886 14.847095,16.176656 14.22692,17.155927 12.366388,17.62289 10.385,18.120187 10,18.84996 10,22.108408 c 0,3.964159 1.287967,5.189503 2.402329,2.285523 z m 6.073753,-3.469292 C 18.1138,19.783191 18.083475,18.583191 18.408694,18.257973 18.733912,17.932754 19,18.416667 19,19.333333 19,20.25 19.45,21 20,21 c 0.55,0 1,0.45 1,1 0,1.824554 -1.854272,1.034509 -2.523918,-1.075361 z M 42.675255,10.873727 C 42.991365,9.293177 43.64375,8 44.125,8 44.60625,8 45,7.325 45,6.5 45,5.675 44.55,5 44,5 43.45,5 43,4.325 43,3.5 43,2.675 42.2125,2.0355263 41.25,2.0789474 c -1.045438,0.047163 -1.246741,0.2820167 -0.5,0.5833333 2.186079,0.882102 1.385149,5.4831256 -1.404539,8.0685213 -2.024233,1.875996 -2.342571,2.65295 -1.340684,3.272151 2.091735,1.292763 4.048254,-0.01811 4.670478,-3.129226 z M 9,11.5 C 9,10.125 8.55,9 8,9 7.45,9 7,8.325 7,7.5 7,6.675 7.3975159,6 7.8833686,6 8.3692214,6 8.9932882,5.1336681 9.2701837,4.0748179 9.62459,2.7195661 9.3605225,2.3081601 8.3781833,2.6851191 7.6106875,2.9796348 6.7128371,4.2959668 6.3829602,5.6103011 6.0530832,6.9246355 5.3819676,8 4.891592,8 4.4012164,8 4,8.675 4,9.5 4,10.325 4.45,11 5,11 5.55,11 6,11.675 6,12.5 6,13.325 6.675,14 7.5,14 8.4333333,14 9,13.055556 9,11.5 Z M 36.19809,11.103685 C 36.505619,9.0083572 36.260454,8.3465602 35.311589,8.7106735 33.85893,9.2681114 33.478641,14 34.886501,14 c 0.487575,0 1.07779,-1.303342 1.311589,-2.896315 z M 15,10 c 0,-0.55 -0.45,-1 -1,-1 -0.55,0 -1,0.45 -1,1 0,0.55 0.45,1 1,1 0.55,0 1,-0.45 1,-1 z"
         id="path12150" />
      <path
         style="fill:#000000"
         d="M 0,26 C 0,0 0,0 26,0 52,0 52,0 52,26 52,52 52,52 26,52 0,52 0,52 0,26 Z M 32.556529,46.300614 C 34.517461,44.339682 34.475516,40.880297 32.5,41.638374 31.307214,42.096089 31,41.315941 31,37.82923 31,32.001302 27.169115,28.15511 24.610243,31.41394 21.224916,35.725295 10.881005,31.101001 12.5,26 c 0.705999,-2.224405 6.03824,-2.885281 6.722281,-0.833156 0.663046,1.989137 7.575267,2.019773 8.097496,0.03589 0.260919,-0.991199 0.496695,-0.553569 0.564222,1.047267 0.12518,2.967607 1.543862,3.683354 2.477627,1.25 C 30.678209,26.675 31.626354,26 32.468615,26 33.310877,26 34,25.55 34,25 c 0,-0.55 1.795596,-1 3.990213,-1 3.894363,0 3.949077,-0.04804 2.277759,-2 -0.94185,-1.1 -2.737445,-2 -3.990213,-2 C 35.024992,20 34,19.55 34,19 c 0,-0.55 0.58464,-1 1.299199,-1 0.883958,0 1.174646,-1.066893 0.909499,-3.33807 -0.256575,-2.197744 0.178034,-3.905805 1.272229,-4.9999998 C 38.68257,8.4602871 38.776875,8.004241 37.821429,8.0153128 36.020287,8.0361845 34.418174,9.1992291 33.709973,11 33.38552,11.825 33.205545,10.925 33.310029,9 33.520593,5.1205904 20.251009,2.9148986 16.861486,6.2658965 16.112669,7.0062027 14.681472,7.9220119 13.681049,8.3010281 12.406463,8.7839126 12.052538,9.5901707 12.498437,10.995074 13.537624,14.269265 12.143443,17 9.4326123,17 6.2544732,17 6.2994053,15.392654 9.5,14.589356 c 2.850208,-0.715357 3.168744,-2.063469 1,-4.232213 C 8.5585995,8.4157424 8.5887217,5.5541355 10.571429,3.5714286 12,2.1428571 11.90058,2 9.477809,2 7.6537647,2 6.647715,2.631136 6.289749,4 6.0020926,5.1 5.3692214,6 4.8833686,6 c -1.4655841,0 -0.9919622,5.034264 0.6258226,6.652048 0.8300552,0.830056 1.2113064,1.991179 0.8472249,2.580276 -0.3640815,0.589096 0.02453,1.573062 0.8635816,2.186592 C 8.6356132,18.454039 10.811401,27 9.6593264,27 9.3752683,27 8.3623058,26.219449 7.4082986,25.265441 5.7622204,23.619363 5.702525,23.745491 6.2380379,27.738038 6.9427068,32.991737 8.9478817,35.049194 14.027404,35.730501 18,36.263338 18,36.263338 18,41.631669 c 0,5.182732 1.941561,7.578377 3.337719,4.118331 0.306966,-0.76074 0.535287,-0.579321 0.583334,0.463502 0.101266,2.197932 8.456223,2.266364 10.635476,0.08711 z M 25,38.583333 c 0,-1.329166 0.5625,-2.612878 1.25,-2.852692 2.204403,-0.768941 3.75,0.416572 3.75,2.876348 0,2.528799 -1.485469,3.255109 -2.337719,1.143011 -0.403509,-1 -0.520176,-1 -0.583334,0 C 26.930967,42.093027 25,41.009405 25,38.583333 Z M 41.428571,31.428571 C 43.519418,29.337725 43.522805,29.340567 39.5,29.810207 37.575,30.03494 36,30.586583 36,31.036082 c 0,0.449498 -0.7875,1.023065 -1.75,1.274592 -0.9625,0.251528 -0.09464,0.509524 1.928571,0.573325 2.147,0.0677 4.332836,-0.538263 5.25,-1.455428 z M 42.710251,13 c 0.287656,-1.1 0.920528,-2 1.40638,-2 C 46.529978,11 44.989879,3.0355638 42.45343,2.3989556 39.23116,1.5902174 38.464791,2.3219339 40.452381,4.3095238 42.871732,6.728875 41.351759,11 38.071429,11 36.579221,11 36.724868,13.722315 38.25,14.337719 40.79985,15.366606 42.201285,14.946287 42.710251,13 Z"
         id="path12148" />
    </g>
    <g
       id="g87384"
       transform="matrix(0.90809857,0,0,0.90809857,-11.590465,-25.086109)">
      <path
         style="fill:#fefefe;stroke-width:0.213126"
         d="M 54.159336,84.805891 V 69.141098 H 69.824129 85.488922 V 84.805891 100.47068 H 69.824129 54.159336 Z m 3.836276,13.426965 v -1.598448 h -1.598448 -1.598449 v 1.598448 1.598449 h 1.598449 1.598448 z m 3.836276,0 v -1.598448 h -1.598449 -1.598448 v 1.598448 1.598449 h 1.598448 1.598449 z m 3.836276,0 v -1.598448 h -1.598449 -1.598448 v 1.598448 1.598449 h 1.598448 1.598449 z m 3.836275,0 v -1.598448 h -1.598448 -1.598448 v 1.598448 1.598449 h 1.598448 1.598448 z m 3.836276,0 v -1.598448 h -1.598448 -1.598448 v 1.598448 1.598449 h 1.598448 1.598448 z m 3.836276,0 v -1.598448 h -1.598448 -1.598449 v 1.598448 1.598449 h 1.598449 1.598448 z m 3.836276,0 V 96.634408 H 79.414819 77.81637 v 1.598448 1.598449 h 1.598449 1.598448 z m 3.836276,0 v -1.598448 h -1.598449 -1.598448 v 1.598448 1.598449 h 1.598448 1.598449 z M 57.995612,94.396581 v -1.598449 h -1.598448 -1.598449 v 1.598449 1.598448 h 1.598449 1.598448 z m 3.836276,0 v -1.598449 h -1.598449 -1.598448 v 1.598449 1.598448 h 1.598448 1.598449 z m 3.836276,0 v -1.598449 h -1.598449 -1.598448 v 1.598449 1.598448 h 1.598448 1.598449 z m 3.836275,0 v -1.598449 h -1.598448 -1.598448 v 1.598449 1.598448 h 1.598448 1.598448 z m 3.836276,0 v -1.598449 h -1.598448 -1.598448 v 1.598449 1.598448 h 1.598448 1.598448 z m 3.836276,0 v -1.598449 h -1.598448 -1.598449 v 1.598449 1.598448 h 1.598449 1.598448 z m 3.836276,0 V 92.798132 H 79.414819 77.81637 v 1.598449 1.598448 h 1.598449 1.598448 z m 3.836276,0 v -1.598449 h -1.598449 -1.598448 v 1.598449 1.598448 h 1.598448 1.598449 z M 57.995612,90.560305 v -1.598449 h -1.598448 -1.598449 v 1.598449 1.598448 h 1.598449 1.598448 z m 3.836276,0 v -1.598449 h -1.598449 -1.598448 v 1.598449 1.598448 h 1.598448 1.598449 z m 3.836276,0 v -1.598449 h -1.598449 -1.598448 v 1.598449 1.598448 h 1.598448 1.598449 z m 3.836275,0 v -1.598449 h -1.598448 -1.598448 v 1.598449 1.598448 h 1.598448 1.598448 z m 3.836276,0 v -1.598449 h -1.598448 -1.598448 v 1.598449 1.598448 h 1.598448 1.598448 z m 3.836276,0 v -1.598449 h -1.598448 -1.598449 v 1.598449 1.598448 h 1.598449 1.598448 z m 3.836276,0 V 88.961856 H 79.414819 77.81637 v 1.598449 1.598448 h 1.598449 1.598448 z m 3.836276,0 v -1.598449 h -1.598449 -1.598448 v 1.598449 1.598448 h 1.598448 1.598449 z M 57.995612,86.724029 v -1.598448 h -1.598448 -1.598449 v 1.598448 1.598448 h 1.598449 1.598448 z m 3.836276,0 v -1.598448 h -1.598449 -1.598448 v 1.598448 1.598448 h 1.598448 1.598449 z m 3.836276,0 v -1.598448 h -1.598449 -1.598448 v 1.598448 1.598448 h 1.598448 1.598449 z m 3.836275,0 v -1.598448 h -1.598448 -1.598448 v 1.598448 1.598448 h 1.598448 1.598448 z m 3.836276,0 v -1.598448 h -1.598448 -1.598448 v 1.598448 1.598448 h 1.598448 1.598448 z m 3.836276,0 v -1.598448 h -1.598448 -1.598449 v 1.598448 1.598448 h 1.598449 1.598448 z m 3.836276,0 V 85.125581 H 79.414819 77.81637 v 1.598448 1.598448 h 1.598449 1.598448 z m 3.836276,0 v -1.598448 h -1.598449 -1.598448 v 1.598448 1.598448 h 1.598448 1.598449 z M 57.995612,82.887753 v -1.598448 h -1.598448 -1.598449 v 1.598448 1.598448 h 1.598449 1.598448 z m 3.836276,0 v -1.598448 h -1.598449 -1.598448 v 1.598448 1.598448 h 1.598448 1.598449 z m 3.836276,0 v -1.598448 h -1.598449 -1.598448 v 1.598448 1.598448 h 1.598448 1.598449 z m 3.836275,0 v -1.598448 h -1.598448 -1.598448 v 1.598448 1.598448 h 1.598448 1.598448 z m 3.836276,0 v -1.598448 h -1.598448 -1.598448 v 1.598448 1.598448 h 1.598448 1.598448 z m 3.836276,0 v -1.598448 h -1.598448 -1.598449 v 1.598448 1.598448 h 1.598449 1.598448 z m 3.836276,0 V 81.289305 H 79.414819 77.81637 v 1.598448 1.598448 h 1.598449 1.598448 z m 3.836276,0 v -1.598448 h -1.598449 -1.598448 v 1.598448 1.598448 h 1.598448 1.598449 z M 57.995612,79.051477 v -1.598448 h -1.598448 -1.598449 v 1.598448 1.598449 h 1.598449 1.598448 z m 3.836276,0 v -1.598448 h -1.598449 -1.598448 v 1.598448 1.598449 h 1.598448 1.598449 z m 3.836276,0 v -1.598448 h -1.598449 -1.598448 v 1.598448 1.598449 h 1.598448 1.598449 z m 3.836275,0 v -1.598448 h -1.598448 -1.598448 v 1.598448 1.598449 h 1.598448 1.598448 z m 3.836276,0 v -1.598448 h -1.598448 -1.598448 v 1.598448 1.598449 h 1.598448 1.598448 z m 3.836276,0 v -1.598448 h -1.598448 -1.598449 v 1.598448 1.598449 h 1.598449 1.598448 z m 3.836276,0 V 77.453029 H 79.414819 77.81637 v 1.598448 1.598449 h 1.598449 1.598448 z m 3.836276,0 v -1.598448 h -1.598449 -1.598448 v 1.598448 1.598449 h 1.598448 1.598449 z M 57.995612,75.215201 v -1.598448 h -1.598448 -1.598449 v 1.598448 1.598449 h 1.598449 1.598448 z m 3.836276,0 v -1.598448 h -1.598449 -1.598448 v 1.598448 1.598449 h 1.598448 1.598449 z m 3.836276,0 v -1.598448 h -1.598449 -1.598448 v 1.598448 1.598449 h 1.598448 1.598449 z m 3.836275,0 v -1.598448 h -1.598448 -1.598448 v 1.598448 1.598449 h 1.598448 1.598448 z m 3.836276,0 v -1.598448 h -1.598448 -1.598448 v 1.598448 1.598449 h 1.598448 1.598448 z m 3.836276,0 v -1.598448 h -1.598448 -1.598449 v 1.598448 1.598449 h 1.598449 1.598448 z m 3.836276,0 V 73.616753 H 79.414819 77.81637 v 1.598448 1.598449 h 1.598449 1.598448 z m 3.836276,0 v -1.598448 h -1.598449 -1.598448 v 1.598448 1.598449 h 1.598448 1.598449 z M 57.995612,71.378926 v -1.598449 h -1.598448 -1.598449 v 1.598449 1.598448 h 1.598449 1.598448 z m 3.836276,0 v -1.598449 h -1.598449 -1.598448 v 1.598449 1.598448 h 1.598448 1.598449 z m 3.836276,0 v -1.598449 h -1.598449 -1.598448 v 1.598449 1.598448 h 1.598448 1.598449 z m 3.836275,0 v -1.598449 h -1.598448 -1.598448 v 1.598449 1.598448 h 1.598448 1.598448 z m 3.836276,0 v -1.598449 h -1.598448 -1.598448 v 1.598449 1.598448 h 1.598448 1.598448 z m 3.836276,0 v -1.598449 h -1.598448 -1.598449 v 1.598449 1.598448 h 1.598449 1.598448 z m 3.836276,0 V 69.780477 H 79.414819 77.81637 v 1.598449 1.598448 h 1.598449 1.598448 z m 3.836276,0 v -1.598449 h -1.598449 -1.598448 v 1.598449 1.598448 h 1.598448 1.598449 z"
         id="path87514" />
      <path
         style="fill:#f2f2f2;stroke-width:0.213126"
         d="m 54.798715,98.232856 v -1.598448 h 1.598449 1.598448 v 1.598448 1.598449 h -1.598448 -1.598449 z"
         id="path87512" />
      <path
         style="fill:#fefc9e;stroke-width:0.213126"
         d="m 54.798715,75.215201 v -1.598448 h 1.598449 1.598448 v 1.598448 1.598449 h -1.598448 -1.598449 z"
         id="path87510" />
      <path
         style="fill:#dddddd;stroke-width:0.213126"
         d="m 58.634991,98.232856 v -1.598448 h 1.598448 1.598449 v 1.598448 1.598449 h -1.598449 -1.598448 z"
         id="path87508" />
      <path
         style="fill:#fee1b2;stroke-width:0.213126"
         d="m 54.798715,90.560305 v -1.598449 h 1.598449 1.598448 v 1.598449 1.598448 h -1.598448 -1.598449 z"
         id="path87506" />
      <path
         style="fill:#fee2a3;stroke-width:0.213126"
         d="m 54.798715,86.724029 v -1.598448 h 1.598449 1.598448 v 1.598448 1.598448 h -1.598448 -1.598449 z"
         id="path87504" />
      <path
         style="fill:#c7cce9;stroke-width:0.213126"
         d="m 54.798715,82.887753 v -1.598448 h 1.598449 1.598448 v 1.598448 1.598448 h -1.598448 -1.598449 z"
         id="path87502" />
      <path
         style="fill:#e7c9c9;stroke-width:0.213126"
         d="m 54.798715,79.051477 v -1.598448 h 1.598449 1.598448 v 1.598448 1.598449 h -1.598448 -1.598449 z"
         id="path87500" />
      <path
         style="fill:#febcbc;stroke-width:0.213126"
         d="m 54.798715,94.396581 v -1.598449 h 1.598449 1.598448 v 1.598449 1.598448 h -1.598448 -1.598449 z"
         id="path87498" />
      <path
         style="fill:#cbcbcb;stroke-width:0.213126"
         d="m 62.471267,98.232856 v -1.598448 h 1.598448 1.598449 v 1.598448 1.598449 h -1.598449 -1.598448 z"
         id="path87496" />
      <path
         style="fill:#fdbd9f;stroke-width:0.213126"
         d="m 70.143819,75.215201 v -1.598448 h 1.598448 1.598448 v 1.598448 1.598449 h -1.598448 -1.598448 z"
         id="path87494" />
      <path
         style="fill:#f3c895;stroke-width:0.213126"
         d="m 58.634991,90.560305 v -1.598449 h 1.598448 1.598449 v 1.598449 1.598448 h -1.598449 -1.598448 z"
         id="path87492" />
      <path
         style="fill:#fefb56;stroke-width:0.213126"
         d="m 58.634991,75.215201 v -1.598448 h 1.598448 1.598449 v 1.598448 1.598449 h -1.598449 -1.598448 z"
         id="path87490" />
      <path
         style="fill:#edd08b;stroke-width:0.213126"
         d="m 58.634991,86.724029 v -1.598448 h 1.598448 1.598449 v 1.598448 1.598448 h -1.598449 -1.598448 z"
         id="path87488" />
      <path
         style="fill:#b1b6d6;stroke-width:0.213126"
         d="m 58.634991,82.887753 v -1.598448 h 1.598448 1.598449 v 1.598448 1.598448 h -1.598449 -1.598448 z"
         id="path87486" />
      <path
         style="fill:#9e9efe;stroke-width:0.213126"
         d="m 54.798715,71.378926 v -1.598449 h 1.598449 1.598448 v 1.598449 1.598448 h -1.598448 -1.598449 z"
         id="path87484" />
      <path
         style="fill:#fe9e9e;stroke-width:0.213126"
         d="m 70.143819,71.378926 v -1.598449 h 1.598448 1.598448 v 1.598449 1.598448 h -1.598448 -1.598448 z"
         id="path87482" />
      <path
         style="fill:#d6b1b1;stroke-width:0.213126"
         d="m 58.634991,79.051477 v -1.598448 h 1.598448 1.598449 v 1.598448 1.598449 h -1.598449 -1.598448 z"
         id="path87480" />
      <path
         style="fill:#b7b7b7;stroke-width:0.213126"
         d="m 66.307543,98.232856 v -1.598448 h 1.598448 1.598448 v 1.598448 1.598449 h -1.598448 -1.598448 z"
         id="path87478" />
      <path
         style="fill:#f39595;stroke-width:0.213126"
         d="m 58.634991,94.396581 v -1.598449 h 1.598448 1.598449 v 1.598449 1.598448 h -1.598449 -1.598448 z"
         id="path87476" />
      <path
         style="fill:#dcc37d;stroke-width:0.213126"
         d="m 62.471267,86.724029 v -1.598448 h 1.598448 1.598449 v 1.598448 1.598448 h -1.598449 -1.598448 z"
         id="path87474" />
      <path
         style="fill:#fdfa23;stroke-width:0.213126"
         d="m 62.471267,75.215201 v -1.598448 h 1.598448 1.598449 v 1.598448 1.598449 h -1.598449 -1.598448 z"
         id="path87472" />
      <path
         style="fill:#e6b27d;stroke-width:0.213126"
         d="m 62.471267,90.560305 v -1.598449 h 1.598448 1.598449 v 1.598449 1.598448 h -1.598449 -1.598448 z"
         id="path87470" />
      <path
         style="fill:#9ea4c5;stroke-width:0.213126"
         d="m 62.471267,82.887753 v -1.598448 h 1.598448 1.598449 v 1.598448 1.598448 h -1.598449 -1.598448 z"
         id="path87468" />
      <path
         style="fill:#c99d9d;stroke-width:0.213126"
         d="m 62.471267,79.051477 v -1.598448 h 1.598448 1.598449 v 1.598448 1.598449 h -1.598449 -1.598448 z"
         id="path87466" />
      <path
         style="fill:#cbb674;stroke-width:0.213126"
         d="m 66.307543,86.724029 v -1.598448 h 1.598448 1.598448 v 1.598448 1.598448 h -1.598448 -1.598448 z"
         id="path87464" />
      <path
         style="fill:#db9e6f;stroke-width:0.213126"
         d="m 66.307543,90.560305 v -1.598449 h 1.598448 1.598448 v 1.598449 1.598448 h -1.598448 -1.598448 z"
         id="path87462" />
      <path
         style="fill:#a2a2a2;stroke-width:0.213126"
         d="m 70.143819,98.232856 v -1.598448 h 1.598448 1.598448 v 1.598448 1.598449 h -1.598448 -1.598448 z"
         id="path87460" />
      <path
         style="fill:#9298b8;stroke-width:0.213126"
         d="m 66.307543,82.887753 v -1.598448 h 1.598448 1.598448 v 1.598448 1.598448 h -1.598448 -1.598448 z"
         id="path87458" />
      <path
         style="fill:#fe8b56;stroke-width:0.213126"
         d="m 73.980094,75.215201 v -1.598448 h 1.598449 1.598448 v 1.598448 1.598449 h -1.598448 -1.598449 z"
         id="path87456" />
      <path
         style="fill:#e77c7c;stroke-width:0.213126"
         d="m 62.471267,94.396581 v -1.598449 h 1.598448 1.598449 v 1.598449 1.598448 h -1.598449 -1.598448 z"
         id="path87454" />
      <path
         style="fill:#efeb00;stroke-width:0.213126"
         d="m 66.307543,75.215201 v -1.598448 h 1.598448 1.598448 v 1.598448 1.598449 h -1.598448 -1.598448 z"
         id="path87452" />
      <path
         style="fill:#bc8e8e;stroke-width:0.213126"
         d="m 66.307543,79.051477 v -1.598448 h 1.598448 1.598448 v 1.598448 1.598449 h -1.598448 -1.598448 z"
         id="path87450" />
      <path
         style="fill:#bba76b;stroke-width:0.213126"
         d="m 70.143819,86.724029 v -1.598448 h 1.598448 1.598448 v 1.598448 1.598448 h -1.598448 -1.598448 z"
         id="path87448" />
      <path
         style="fill:#868cab;stroke-width:0.213126"
         d="m 70.143819,82.887753 v -1.598448 h 1.598448 1.598448 v 1.598448 1.598448 h -1.598448 -1.598448 z"
         id="path87446" />
      <path
         style="fill:#cf8b61;stroke-width:0.213126"
         d="m 70.143819,90.560305 v -1.598449 h 1.598448 1.598448 v 1.598449 1.598448 h -1.598448 -1.598448 z"
         id="path87444" />
      <path
         style="fill:#939393;stroke-width:0.213126"
         d="m 73.980094,98.232856 v -1.598448 h 1.598449 1.598448 v 1.598448 1.598449 h -1.598448 -1.598449 z"
         id="path87442" />
      <path
         style="fill:#df6b6b;stroke-width:0.213126"
         d="m 66.307543,94.396581 v -1.598449 h 1.598448 1.598448 v 1.598449 1.598448 h -1.598448 -1.598448 z"
         id="path87440" />
      <path
         style="fill:#b27f7f;stroke-width:0.213126"
         d="m 70.143819,79.051477 v -1.598448 h 1.598448 1.598448 v 1.598448 1.598449 h -1.598448 -1.598448 z"
         id="path87438" />
      <path
         style="fill:#5656fe;stroke-width:0.213126"
         d="m 58.634991,71.378926 v -1.598449 h 1.598448 1.598449 v 1.598449 1.598448 h -1.598449 -1.598448 z"
         id="path87436" />
      <path
         style="fill:#fe5656;stroke-width:0.213126"
         d="m 73.980094,71.378926 v -1.598449 h 1.598449 1.598448 v 1.598449 1.598448 h -1.598448 -1.598449 z"
         id="path87434" />
      <path
         style="fill:#aa9962;stroke-width:0.213126"
         d="m 73.980094,86.724029 v -1.598448 h 1.598449 1.598448 v 1.598448 1.598448 h -1.598448 -1.598449 z"
         id="path87432" />
      <path
         style="fill:#787e9f;stroke-width:0.213126"
         d="m 73.980094,82.887753 v -1.598448 h 1.598449 1.598448 v 1.598448 1.598448 h -1.598448 -1.598449 z"
         id="path87430" />
      <path
         style="fill:#c67a51;stroke-width:0.213126"
         d="m 73.980094,90.560305 v -1.598449 h 1.598449 1.598448 v 1.598449 1.598448 h -1.598448 -1.598449 z"
         id="path87428" />
      <path
         style="fill:#848484;stroke-width:0.213126"
         d="m 77.81637,98.232856 v -1.598448 h 1.598449 1.598448 v 1.598448 1.598449 H 79.414819 77.81637 Z"
         id="path87426" />
      <path
         style="fill:#d75a5a;stroke-width:0.213126"
         d="m 70.143819,94.396581 v -1.598449 h 1.598448 1.598448 v 1.598449 1.598448 h -1.598448 -1.598448 z"
         id="path87424" />
      <path
         style="fill:#fd6823;stroke-width:0.213126"
         d="m 77.81637,75.215201 v -1.598448 h 1.598449 1.598448 v 1.598448 1.598449 H 79.414819 77.81637 Z"
         id="path87422" />
      <path
         style="fill:#a77070;stroke-width:0.213126"
         d="m 73.980094,79.051477 v -1.598448 h 1.598449 1.598448 v 1.598448 1.598449 h -1.598448 -1.598449 z"
         id="path87420" />
      <path
         style="fill:#978a5c;stroke-width:0.213126"
         d="m 77.81637,86.724029 v -1.598448 h 1.598449 1.598448 v 1.598448 1.598448 H 79.414819 77.81637 Z"
         id="path87418" />
      <path
         style="fill:#656f98;stroke-width:0.213126"
         d="m 77.81637,82.887753 v -1.598448 h 1.598449 1.598448 v 1.598448 1.598448 H 79.414819 77.81637 Z"
         id="path87416" />
      <path
         style="fill:#ce4848;stroke-width:0.213126"
         d="m 73.980094,94.396581 v -1.598449 h 1.598449 1.598448 v 1.598449 1.598448 h -1.598448 -1.598449 z"
         id="path87414" />
      <path
         style="fill:#cb6032;stroke-width:0.213126"
         d="m 77.81637,90.560305 v -1.598449 h 1.598449 1.598448 v 1.598449 1.598448 H 79.414819 77.81637 Z"
         id="path87412" />
      <path
         style="fill:#727272;stroke-width:0.213126"
         d="m 81.652646,98.232856 v -1.598448 h 1.598448 1.598449 v 1.598448 1.598449 h -1.598449 -1.598448 z"
         id="path87410" />
      <path
         style="fill:#867d53;stroke-width:0.213126"
         d="m 81.652646,86.724029 v -1.598448 h 1.598448 1.598449 v 1.598448 1.598448 h -1.598449 -1.598448 z"
         id="path87408" />
      <path
         style="fill:#a45959;stroke-width:0.213126"
         d="m 77.81637,79.051477 v -1.598448 h 1.598449 1.598448 v 1.598448 1.598449 H 79.414819 77.81637 Z"
         id="path87406" />
      <path
         style="fill:#57628c;stroke-width:0.213126"
         d="m 81.652646,82.887753 v -1.598448 h 1.598448 1.598449 v 1.598448 1.598448 h -1.598449 -1.598448 z"
         id="path87404" />
      <path
         style="fill:#fd2323;stroke-width:0.213126"
         d="m 77.81637,71.378926 v -1.598449 h 1.598449 1.598448 v 1.598449 1.598448 H 79.414819 77.81637 Z"
         id="path87402" />
      <path
         style="fill:#2323fd;stroke-width:0.213126"
         d="m 62.471267,71.378926 v -1.598449 h 1.598448 1.598449 v 1.598449 1.598448 h -1.598449 -1.598448 z"
         id="path87400" />
      <path
         style="fill:#ef4b00;stroke-width:0.213126"
         d="m 81.652646,75.215201 v -1.598448 h 1.598448 1.598449 v 1.598448 1.598449 h -1.598449 -1.598448 z"
         id="path87398" />
      <path
         style="fill:#c63737;stroke-width:0.213126"
         d="m 77.81637,94.396581 v -1.598449 h 1.598449 1.598448 v 1.598449 1.598448 H 79.414819 77.81637 Z"
         id="path87396" />
      <path
         style="fill:#c64a1e;stroke-width:0.213126"
         d="m 81.652646,90.560305 v -1.598449 h 1.598448 1.598449 v 1.598449 1.598448 h -1.598449 -1.598448 z"
         id="path87394" />
      <path
         style="fill:#9b4848;stroke-width:0.213126"
         d="m 81.652646,79.051477 v -1.598448 h 1.598448 1.598449 v 1.598448 1.598449 h -1.598449 -1.598448 z"
         id="path87392" />
      <path
         style="fill:#be2626;stroke-width:0.213126"
         d="m 81.652646,94.396581 v -1.598449 h 1.598448 1.598449 v 1.598449 1.598448 h -1.598449 -1.598448 z"
         id="path87390" />
      <path
         style="fill:#ef0000;stroke-width:0.213126"
         d="m 81.652646,71.378926 v -1.598449 h 1.598448 1.598449 v 1.598449 1.598448 h -1.598449 -1.598448 z"
         id="path87388" />
      <path
         style="fill:#0000ee;stroke-width:0.213126"
         d="m 66.307543,71.378926 v -1.598449 h 1.598448 1.598448 v 1.598449 1.598448 h -1.598448 -1.598448 z"
         id="path87386" />
    </g>
  </g>
</svg>
